<?xml version="1.0" encoding="UTF-8"?><svg id="_レイヤー_2" xmlns="http://www.w3.org/2000/svg" viewBox="0 0 199.26 51.02"><defs><style>.cls-1{fill:#005982;}.cls-2{fill:#00a0e9;isolation:isolate;}</style></defs><g id="_レイヤー_3"><g><g><g><path class="cls-1" d="M195.6,16.15c.5,0,1.18,.13,1.18,1.2,0,.33-.02,.89-.61,1.1,.39,.09,.55,.37,.55,.78v.39c0,.44,.07,.7,.1,.83h-1.01c-.05-.19-.07-.46-.07-.66v-.4c0-.49-.27-.49-.54-.49h-1.28v1.56h-.98v-4.3h2.65Zm-1.68,.89v.99h1.42c.3,0,.47-.1,.47-.54,0-.36-.19-.44-.46-.44h-1.43Z"/><path class="cls-1" d="M190.33,18.31c0,2.46,2,4.47,4.47,4.47s4.47-2,4.47-4.47-2-4.47-4.47-4.47-4.47,2.01-4.47,4.47Zm.99,0c0-1.92,1.56-3.48,3.47-3.48s3.48,1.56,3.48,3.48-1.56,3.47-3.48,3.47-3.47-1.56-3.47-3.47Z"/></g><g><path class="cls-1" d="M79.69,20.29c.89,.39,1.62,1.02,2.19,1.87,.52,.76,.86,1.63,1.01,2.62,.09,.58,.12,1.42,.11,2.52h-9.24c.05,1.27,.49,2.16,1.32,2.68,.51,.32,1.12,.48,1.83,.48,.76,0,1.37-.19,1.84-.58,.26-.21,.49-.5,.68-.87h3.39c-.09,.75-.5,1.52-1.23,2.29-1.14,1.23-2.73,1.85-4.77,1.85-1.69,0-3.18-.52-4.47-1.56-1.29-1.04-1.93-2.73-1.93-5.08,0-2.2,.58-3.88,1.75-5.05,1.16-1.17,2.68-1.76,4.54-1.76,1.1,0,2.1,.2,2.98,.6Zm-4.96,2.86c-.47,.48-.76,1.14-.88,1.96h5.72c-.06-.88-.36-1.55-.88-2-.53-.46-1.19-.69-1.97-.69-.85,0-1.51,.24-1.98,.72Z"/><path class="cls-1" d="M89.71,25c.62-.08,1.06-.17,1.32-.29,.48-.2,.71-.52,.71-.94,0-.52-.18-.88-.55-1.08-.37-.2-.9-.3-1.61-.3-.79,0-1.36,.19-1.69,.58-.24,.29-.39,.68-.47,1.17h-3.2c.07-1.11,.38-2.02,.93-2.74,.88-1.12,2.39-1.68,4.53-1.68,1.39,0,2.63,.27,3.72,.82,1.08,.55,1.62,1.59,1.62,3.12v5.82c0,.4,0,.89,.02,1.46,.02,.43,.09,.73,.2,.88,.11,.16,.27,.28,.49,.38v.49h-3.61c-.1-.26-.17-.49-.21-.72-.04-.23-.07-.48-.09-.77-.46,.5-.99,.92-1.59,1.27-.72,.41-1.53,.62-2.43,.62-1.15,0-2.11-.33-2.86-.98-.75-.65-1.13-1.58-1.13-2.79,0-1.56,.61-2.69,1.82-3.38,.67-.38,1.64-.65,2.93-.81l1.14-.14Zm2.03,1.55c-.21,.13-.43,.24-.64,.32-.22,.08-.51,.16-.89,.23l-.75,.14c-.71,.12-1.22,.28-1.52,.45-.52,.3-.78,.77-.78,1.41,0,.57,.16,.97,.48,1.23,.32,.25,.71,.38,1.16,.38,.73,0,1.39-.21,2-.63,.61-.42,.93-1.18,.95-2.29v-1.23Z"/><path class="cls-1" d="M104.98,19.74s.14,0,.28,.02v3.4c-.21-.02-.4-.04-.56-.05-.16,0-.3-.01-.4-.01-1.33,0-2.23,.44-2.69,1.3-.26,.49-.38,1.24-.38,2.26v6.06h-3.34v-12.68h3.17v2.21c.51-.85,.96-1.42,1.34-1.73,.62-.52,1.43-.78,2.42-.78,.06,0,.11,0,.16,0Z"/><path class="cls-1" d="M105.91,22.51v-2.36h1.77v-3.54h3.28v3.54h2.06v2.36h-2.06v6.7c0,.52,.07,.84,.2,.97,.13,.13,.53,.19,1.21,.19,.1,0,.21,0,.32,0,.11,0,.22,0,.33-.02v2.48l-1.57,.06c-1.57,.05-2.64-.22-3.21-.81-.37-.38-.56-.97-.56-1.76v-7.81h-1.77Z"/><path class="cls-1" d="M124.26,20.1c.64,.27,1.16,.69,1.57,1.25,.35,.47,.56,.96,.64,1.46,.08,.5,.12,1.32,.12,2.45v7.45h-3.39v-7.72c0-.68-.12-1.24-.34-1.65-.3-.59-.87-.89-1.71-.89s-1.53,.29-1.98,.88c-.45,.58-.67,1.42-.67,2.51v6.87h-3.32V15.62h3.32v6.05c.48-.74,1.03-1.25,1.66-1.54,.63-.29,1.29-.44,1.99-.44,.78,0,1.49,.14,2.13,.41Z"/><path class="cls-1" d="M144.59,20.29c.88,.39,1.62,1.02,2.19,1.87,.52,.76,.86,1.63,1.01,2.62,.09,.58,.13,1.42,.11,2.52h-9.24c.05,1.27,.49,2.16,1.33,2.68,.51,.32,1.12,.48,1.83,.48,.75,0,1.37-.19,1.84-.58,.26-.21,.48-.5,.68-.87h3.38c-.09,.75-.5,1.52-1.23,2.29-1.14,1.23-2.73,1.85-4.77,1.85-1.69,0-3.18-.52-4.47-1.56-1.29-1.04-1.93-2.73-1.93-5.08,0-2.2,.58-3.88,1.75-5.05,1.17-1.17,2.68-1.76,4.54-1.76,1.1,0,2.09,.2,2.98,.6Zm-4.96,2.86c-.47,.48-.76,1.14-.88,1.96h5.71c-.06-.88-.35-1.55-.88-2-.53-.46-1.18-.69-1.97-.69-.85,0-1.51,.24-1.98,.72Z"/><path class="cls-1" d="M150.08,35.15l.42,.02c.33,.01,.64,0,.93-.04,.29-.04,.54-.13,.74-.27,.19-.13,.37-.41,.54-.83,.17-.42,.24-.67,.22-.77l-4.66-13.24h3.69l2.77,9.36,2.62-9.36h3.53l-4.35,12.47c-.84,2.41-1.51,3.9-1.99,4.48-.49,.58-1.47,.87-2.94,.87-.29,0-.53,0-.71,0-.18,0-.45-.02-.81-.04v-2.65Z"/><path class="cls-1" d="M171.1,20.29c.89,.39,1.62,1.02,2.19,1.87,.52,.76,.86,1.63,1.01,2.62,.09,.58,.13,1.42,.11,2.52h-9.24c.05,1.27,.49,2.16,1.33,2.68,.51,.32,1.11,.48,1.83,.48,.75,0,1.37-.19,1.84-.58,.26-.21,.49-.5,.68-.87h3.38c-.09,.75-.5,1.52-1.23,2.29-1.13,1.23-2.73,1.85-4.77,1.85-1.69,0-3.18-.52-4.47-1.56-1.29-1.04-1.93-2.73-1.93-5.08,0-2.2,.58-3.88,1.75-5.05,1.16-1.17,2.68-1.76,4.54-1.76,1.1,0,2.1,.2,2.98,.6Zm-4.96,2.86c-.47,.48-.76,1.14-.88,1.96h5.71c-.06-.88-.36-1.55-.88-2-.53-.46-1.18-.69-1.97-.69-.85,0-1.51,.24-1.98,.72Z"/><path class="cls-1" d="M178.66,28.67c.07,.59,.22,1.01,.46,1.26,.41,.44,1.18,.66,2.29,.66,.66,0,1.17-.1,1.56-.29,.39-.19,.58-.48,.58-.87s-.16-.66-.47-.85c-.31-.19-1.47-.53-3.47-1-1.44-.36-2.46-.81-3.05-1.34-.59-.53-.88-1.29-.88-2.28,0-1.17,.46-2.18,1.38-3.02,.92-.84,2.22-1.26,3.89-1.26,1.58,0,2.88,.32,3.88,.95,1,.63,1.57,1.72,1.72,3.28h-3.32c-.05-.43-.17-.77-.36-1.01-.36-.45-.99-.67-1.87-.67-.72,0-1.24,.11-1.55,.33-.31,.23-.46,.49-.46,.79,0,.38,.16,.65,.49,.82,.33,.18,1.48,.49,3.46,.92,1.32,.31,2.31,.78,2.97,1.41,.65,.64,.98,1.43,.98,2.38,0,1.26-.47,2.28-1.41,3.08-.94,.79-2.38,1.19-4.34,1.19s-3.47-.42-4.43-1.26c-.95-.84-1.43-1.91-1.43-3.22h3.36Z"/></g></g><path class="cls-2" d="M32.11,.87C18.53-2.77,4.51,5.33,.87,18.91c-3.64,13.58,4.45,27.6,18.04,31.24,13.59,3.64,27.61-4.46,31.24-18.04,.58-2.17,.88-4.38,.88-6.59,0-.87-.12-1.73-.22-2.6-2.2,4.98-5.98,9.02-10.75,11.54-.11,.06-.23,.1-.34,.16-.68,.35-1.37,.69-2.1,.97-.87,.34-1.77,.65-2.69,.89,0,0-.01,0-.02,.01,0,0,0,0,0,0-.03,0-.05,.02-.07,.03-.24,.06-.49-.07-.57-.3-.08-.23,.04-.49,.26-.59,5.26-2.24,9.12-6.68,10.6-12.19,.16-.59,.29-1.19,.39-1.78,.17-1.04,.25-2.07,.25-3.1,0-.18-.02-.35-.02-.53-.01-.33-.02-.67-.05-1-.02-.26-.07-.51-.1-.76-.03-.25-.05-.5-.1-.74-1.03-5.97-4.98-11.21-10.76-13.73-.55-.24-1.11-.45-1.7-.64l-.93-.28Zm2.26,19.94c-1.35,5.04-6.53,8.04-11.57,6.68-5.04-1.35-8.03-6.53-6.68-11.57,1.35-5.04,6.53-8.03,11.57-6.68,5.04,1.35,8.04,6.53,6.68,11.57Z"/></g></g></svg>